<?xml version="1.0" standalone="no"?>
<!DOCTYPE svg PUBLIC "-//W3C//DTD SVG 20010904//EN"
 "http://www.w3.org/TR/2001/REC-SVG-20010904/DTD/svg10.dtd">
<svg version="1.0" xmlns="http://www.w3.org/2000/svg"
 width="500.000000pt" height="500.000000pt" viewBox="0 0 500.000000 500.000000"
 preserveAspectRatio="xMidYMid meet">

<g transform="translate(0.000000,500.000000) scale(0.100000,-0.100000)"
fill="#000000" stroke="none">
<path d="M0 2500 l0 -2500 2500 0 2500 0 0 2500 0 2500 -2500 0 -2500 0 0
-2500z m2823 868 c45 -118 357 -1024 357 -1035 0 -10 -49 -13 -224 -13 l-223
0 -93 268 c-50 147 -95 273 -99 280 -5 8 -30 -50 -63 -145 l-55 -158 -211 -3
c-125 -1 -212 1 -212 7 0 7 219 638 282 814 l10 27 258 0 257 0 16 -42z m-34
-1225 c34 -98 61 -181 61 -185 0 -4 -147 -9 -326 -10 l-326 -3 -27 -75 c-15
-41 -44 -123 -65 -182 l-38 -108 -219 0 c-120 0 -219 3 -219 8 0 4 57 170 127
370 l128 362 421 0 421 0 62 -177z m583 -363 c32 -91 61 -173 64 -183 5 -16
-8 -17 -222 -15 l-226 3 -59 169 c-33 92 -59 174 -59 182 0 12 36 14 222 12
l221 -3 59 -165z"/>
</g>
</svg>
